<svg width="48" height="31" viewBox="0 0 48 31" fill="none" xmlns="http://www.w3.org/2000/svg">
<path d="M23.625 4C25.192 3.9998 26.7433 4.31139 28.1887 4.91659C29.6341 5.5218 30.9447 6.40854 32.044 7.52517C33.1434 8.6418 34.0096 9.966 34.5922 11.4206C35.1748 12.8753 35.4621 14.4313 35.4375 15.9981C35.4335 16.2575 35.4894 16.5144 35.6009 16.7487C35.7123 16.983 35.8762 17.1884 36.08 17.349C36.2837 17.5097 36.5217 17.6212 36.7756 17.6749C37.0294 17.7285 37.2922 17.723 37.5435 17.6586C38.2918 17.4669 39.0741 17.4486 39.8306 17.6052C40.5871 17.7618 41.2978 18.0891 41.9085 18.5621C42.5193 19.0352 43.0139 19.6415 43.3547 20.3347C43.6955 21.028 43.8735 21.79 43.875 22.5625C43.875 23.9052 43.3416 25.1928 42.3922 26.1422C41.4428 27.0916 40.1552 27.625 38.8125 27.625H10.125C9.22759 27.6199 8.3402 27.436 7.51474 27.0839C6.68928 26.7318 5.94232 26.2186 5.31755 25.5744C4.69278 24.9301 4.20274 24.1678 3.87611 23.3319C3.54947 22.4961 3.39279 21.6035 3.41523 20.7063C3.43767 19.8092 3.63878 18.9255 4.00679 18.107C4.37481 17.2886 4.90235 16.5517 5.55854 15.9395C6.21474 15.3273 6.98642 14.8521 7.82845 14.5417C8.67049 14.2313 9.56596 14.0919 10.4625 14.1317C10.8514 14.1518 11.2352 14.0367 11.5489 13.806C11.8626 13.5753 12.0869 13.2433 12.1837 12.8661C12.8384 10.3292 14.3174 8.08167 16.3884 6.4768C18.4594 4.87193 21.005 4.00069 23.625 4ZM38.7214 14.125C38.3417 10.7032 36.8106 7.51198 34.3793 5.07448C31.948 2.63699 28.7606 1.09788 25.3398 0.709511C21.919 0.321139 18.4677 1.10654 15.5518 2.93696C12.636 4.76737 10.4285 7.53418 9.29137 10.7837C6.68567 10.997 4.26347 12.21 2.5318 14.1687C0.800126 16.1274 -0.10677 18.68 0.000945259 21.2922C0.10866 23.9044 1.22264 26.3736 3.10969 28.1831C4.99674 29.9926 7.51058 31.002 10.125 31H38.8125C41.0503 31 43.1964 30.1111 44.7787 28.5287C46.361 26.9464 47.25 24.8003 47.25 22.5625C47.25 20.3247 46.361 18.1786 44.7787 16.5963C43.1964 15.0139 41.0503 14.125 38.8125 14.125H38.7214Z" fill="white"/>
</svg>
